<?xml version="1.0" standalone="no"?><!DOCTYPE svg PUBLIC "-//W3C//DTD SVG 1.1//EN" "http://www.w3.org/Graphics/SVG/1.1/DTD/svg11.dtd"><svg class="icon" width="64px" height="64.00px" viewBox="0 0 1024 1024" version="1.1" xmlns="http://www.w3.org/2000/svg"><path fill="#ffffff" d="M773.5 959.8c-5.8 0-11.5-1.8-16.4-5.3L512 777.4l-245.1 177c-8.5 6.2-19.8 7-29.1 2.2-9.4-4.8-15.2-14.4-15.2-24.9V92.2c0-15.5 12.5-28 28-28h523c15.5 0 28 12.5 28 28v839.6c0 10.5-5.9 20.1-15.2 24.9-4.2 2.1-8.6 3.1-12.9 3.1zM512 714.9c5.7 0 11.5 1.8 16.4 5.3L745.5 877V120.2h-467v756.9l217.1-156.8c4.9-3.6 10.7-5.4 16.4-5.4z"  /></svg>