<?xml version="1.0" standalone="no"?><!DOCTYPE svg PUBLIC "-//W3C//DTD SVG 1.1//EN" "http://www.w3.org/Graphics/SVG/1.1/DTD/svg11.dtd"><svg class="icon" width="64px" height="64.00px" viewBox="0 0 1024 1024" version="1.1" xmlns="http://www.w3.org/2000/svg"><path fill="#ffffff" d="M624.605867 929.018311C621.602133 938.496 612.010667 944.355556 602.055111 944.355556l-0.341333 0c-13.141333 0-25.156267 7.429689-31.038578 19.182933l-0.238933 0.477867C562.517333 979.854222 546.326756 989.866667 528.611556 989.866667l-33.223111 0c-17.7152 0-33.905778-10.012444-41.824711-25.850311l-0.238933-0.477867C447.442489 951.785244 435.427556 944.355556 422.286222 944.355556l-0.341333 0c-9.944178 0-19.535644-5.859556-22.539378-15.337244C394.410667 913.3056 406.004622 898.844444 420.977778 898.844444l182.044444 0C617.995378 898.844444 629.589333 913.3056 624.605867 929.018311zM270.6432 675.669333l-64.364089 64.364089c-8.886044 8.886044-8.886044 23.290311 0 32.176356 4.437333 4.448711 10.262756 6.667378 16.088178 6.667378s11.650844-2.218667 16.088178-6.667378l64.364089-64.364089c8.886044-8.886044 8.886044-23.290311 0-32.176356C293.944889 666.783289 279.517867 666.783289 270.6432 675.669333zM216.177778 466.488889c0-12.561067-10.194489-22.755556-22.755556-22.755556L102.4 443.733333c-12.561067 0-22.755556 10.194489-22.755556 22.755556s10.194489 22.755556 22.755556 22.755556l91.022222 0C205.983289 489.244444 216.177778 479.049956 216.177778 466.488889zM512 170.666667c12.561067 0 22.755556-10.194489 22.755556-22.755556L534.755556 56.888889c0-12.561067-10.194489-22.755556-22.755556-22.755556s-22.755556 10.194489-22.755556 22.755556l0 91.022222C489.244444 160.472178 499.438933 170.666667 512 170.666667zM737.268622 263.975822c5.825422 0 11.639467-2.218667 16.088178-6.667378l64.364089-64.364089c8.886044-8.886044 8.886044-23.290311 0-32.176356s-23.290311-8.886044-32.176356 0l-64.364089 64.364089c-8.886044 8.886044-8.886044 23.290311 0 32.176356C725.617778 261.757156 731.4432 263.975822 737.268622 263.975822zM270.6432 257.308444c4.437333 4.448711 10.262756 6.667378 16.088178 6.667378s11.650844-2.218667 16.088178-6.667378c8.886044-8.886044 8.886044-23.290311 0-32.176356l-64.364089-64.364089c-8.874667-8.886044-23.301689-8.886044-32.176356 0-8.886044 8.886044-8.886044 23.290311 0 32.176356L270.6432 257.308444zM921.6 443.733333l-91.022222 0c-12.561067 0-22.755556 10.194489-22.755556 22.755556s10.194489 22.755556 22.755556 22.755556l91.022222 0c12.561067 0 22.755556-10.194489 22.755556-22.755556S934.161067 443.733333 921.6 443.733333zM753.3568 675.669333c-8.886044-8.886044-23.290311-8.886044-32.176356 0s-8.886044 23.290311 0 32.176356l64.364089 64.364089c4.448711 4.448711 10.262756 6.667378 16.088178 6.667378s11.639467-2.218667 16.088178-6.667378c8.886044-8.886044 8.886044-23.290311 0-32.176356L753.3568 675.669333zM603.022222 841.955556 420.977778 841.955556c-12.561067 0-22.755556 10.194489-22.755556 22.755556s10.194489 22.755556 22.755556 22.755556l182.044444 0c12.561067 0 22.755556-10.194489 22.755556-22.755556S615.583289 841.955556 603.022222 841.955556zM625.777778 807.822222c0 12.561067-10.194489 22.755556-22.755556 22.755556L420.977778 830.577778c-12.561067 0-22.755556-10.194489-22.755556-22.755556 0-12.117333 9.500444-21.936356 21.447111-22.619022C405.504 657.157689 273.066667 628.6336 273.066667 477.866667c0-131.959467 106.973867-238.933333 238.933333-238.933333s238.933333 106.973867 238.933333 238.933333c0 150.766933-132.437333 179.291022-146.602667 307.336533C616.277333 785.885867 625.777778 795.704889 625.777778 807.822222zM602.874311 419.805867c-7.748267-23.176533-31.414044-49.755022-73.443556-55.523556l0-27.465956c0-9.4208-7.645867-17.066667-17.066667-17.066667s-17.066667 7.645867-17.066667 17.066667l0 27.966578c-34.907022 6.7584-61.860978 33.848889-65.4336 68.278044-3.322311 32.119467 15.371378 74.365156 78.995911 87.688533 34.599822 7.247644 54.545067 26.703644 52.041956 50.767644-2.025244 19.5584-19.342222 39.344356-48.548978 39.344356-34.668089 0-52.974933-17.988267-58.129067-33.393778-2.992356-8.931556-12.652089-13.778489-21.595022-10.774756s-13.767111 12.663467-10.774756 21.595022c7.759644 23.176533 31.425422 49.755022 73.443556 55.512178L495.297422 671.288889c0 9.4208 7.645867 17.066667 17.066667 17.066667s17.066667-7.645867 17.066667-17.066667l0-27.966578c34.907022-6.7584 61.860978-33.848889 65.4336-68.278044 3.322311-32.119467-15.371378-74.365156-78.995911-87.688533-34.599822-7.247644-54.545067-26.703644-52.041956-50.767644 2.025244-19.5584 19.342222-39.344356 48.548978-39.344356 34.668089 0 52.986311 17.988267 58.129067 33.393778 2.992356 8.931556 12.617956 13.778489 21.595022 10.774756C601.042489 438.419911 605.866667 428.760178 602.874311 419.805867z" /></svg>