<?xml version="1.0" standalone="no"?><!DOCTYPE svg PUBLIC "-//W3C//DTD SVG 1.1//EN" "http://www.w3.org/Graphics/SVG/1.1/DTD/svg11.dtd"><svg class="icon" width="200px" height="200.00px" viewBox="0 0 1024 1024" version="1.1" xmlns="http://www.w3.org/2000/svg"><path fill="#ffffff" d="M608 428.8h-192c-51.2 0-96-44.8-96-96v-192c0-51.2 44.8-96 96-96h192c51.2 0 96 44.8 96 96v192c0 57.6-44.8 96-96 96z m-192-320c-19.2 0-32 12.8-32 32v192c0 19.2 12.8 32 32 32h192c19.2 0 32-12.8 32-32v-192c0-19.2-12.8-32-32-32h-192zM224 972.8h-64c-51.2 0-96-44.8-96-96v-64c0-51.2 44.8-96 96-96h64c51.2 0 96 44.8 96 96v64c0 57.6-44.8 96-96 96z m-64-192c-19.2 0-32 12.8-32 32v64c0 19.2 12.8 32 32 32h64c19.2 0 32-12.8 32-32v-64c0-19.2-12.8-32-32-32h-64zM864 972.8h-64c-51.2 0-96-44.8-96-96v-64c0-51.2 44.8-96 96-96h64c51.2 0 96 44.8 96 96v64c0 57.6-44.8 96-96 96z m-64-192c-19.2 0-32 12.8-32 32v64c0 19.2 12.8 32 32 32h64c19.2 0 32-12.8 32-32v-64c0-19.2-12.8-32-32-32h-64zM544 972.8h-64c-51.2 0-96-44.8-96-96v-64c0-51.2 44.8-96 96-96h64c51.2 0 96 44.8 96 96v64c0 57.6-44.8 96-96 96z m-64-192c-19.2 0-32 12.8-32 32v64c0 19.2 12.8 32 32 32h64c19.2 0 32-12.8 32-32v-64c0-19.2-12.8-32-32-32h-64z"  /><path fill="#ffffff" d="M224 780.8h-64v-128c0-51.2 44.8-96 96-96h512c51.2 0 96 44.8 96 96v128h-64v-128c0-19.2-12.8-32-32-32h-512c-19.2 0-32 12.8-32 32v128z"  /><path fill="#ffffff" d="M480 396.8h64v320h-64z"  /></svg>