<?xml version="1.0" standalone="no"?><!DOCTYPE svg PUBLIC "-//W3C//DTD SVG 1.1//EN" "http://www.w3.org/Graphics/SVG/1.1/DTD/svg11.dtd"><svg class="icon" width="64px" height="64.00px" viewBox="0 0 1024 1024" version="1.1" xmlns="http://www.w3.org/2000/svg"><path fill="#ffffff" d="M510.941765 894.565477c-193.447243 0-350.835733-157.410875-350.835733-350.879304 0-193.459435 157.415472-350.828338 350.857718-350.828338 56.169717 0 131.805236 30.308851 159.895191 42.457014l-27.828133-76.436976c-4.001287-11.071893 1.732825-23.454498 12.811314-27.480368l1.841751-0.667547c11.055504-4.047256 23.418123 1.671267 27.446391 12.766744l46.657166 128.150314c4.001287 11.07689-1.733824 23.437509-12.811314 27.461381l-1.863736 0.667547c-0.130911 0.065556-0.282808 0.021585-0.402727 0.065556l-114.253336 65.978666c-10.199085 5.890007-23.391141 2.354803-29.278149-7.841683l-0.986331-1.714238c-5.91399-10.174502-2.40437-23.372154 7.822696-29.259562l80.9729-46.769091c-1.973662-0.340169-3.968309-0.596995-5.768089-1.433428 0 0-83.992853-39.160849-144.27778-39.160849-167.66932 0-304.069641 136.400121-304.069641 304.045057 0 167.701898 136.373139 304.113011 304.047656 304.113011 167.673917 0 304.093025-136.391127 304.093025-304.079034 0-25.109975-5.097544-51.698349-5.097544-51.698349-2.207503-11.570555 4.393022-25.749542 14.652066-31.535619l4.818733-2.676585c10.282029-5.784078 20.73694-1.092859 23.266225 10.433326 0 0 9.190769 41.988332 9.190769 75.449245C861.831862 737.154601 704.422985 894.565477 510.941765 894.565477zM627.495342 730.019439l-116.957503-63.146986-118.312984 60.562738 23.903793-130.828898-94.170353-93.853567 131.805236-17.632045 60.219971-118.56981 57.478829 119.855938 131.237621 20.586442-96.170596 91.771579L627.495342 730.019439zM585.509009 670.835765l-74.523273-40.278691-75.434256 38.605625 15.252059-83.399255-59.996123-59.788863 83.992853-11.245975 38.370984-75.578957 36.627167 76.374418 83.697053 13.1271-61.309232 58.501136L585.509009 670.835765z" /></svg>