<?xml version="1.0" standalone="no"?><!DOCTYPE svg PUBLIC "-//W3C//DTD SVG 1.1//EN" "http://www.w3.org/Graphics/SVG/1.1/DTD/svg11.dtd"><svg class="icon" width="64px" height="64.00px" viewBox="0 0 1024 1024" version="1.1" xmlns="http://www.w3.org/2000/svg"><path fill="#ffffff" d="M696.598298 348.350826l-406.740678 0.384763c-22.37766 0-40.524972-18.123776-40.524972-40.525995 0-22.37766 18.122753-40.529065 40.524972-40.529065l406.740678-0.384763c22.37766 0 40.524972 18.151405 40.524972 40.529065C737.12327 330.22705 718.975958 348.350826 696.598298 348.350826L696.598298 348.350826zM696.598298 510.436388l-406.740678 0.384763c-22.37766 0-40.524972-18.145266-40.524972-40.529065 0-22.401196 18.122753-40.524972 40.524972-40.524972l406.740678-0.384763c22.37766 0 40.524972 18.146289 40.524972 40.524972C737.12327 492.313635 718.975958 510.436388 696.598298 510.436388L696.598298 510.436388zM840.07913 665.765059c-0.600681 0.435928-1.1328 1.013073-1.779529 1.421372L567.733349 938.450579c-7.284917 10.986215-19.663852 18.22099-33.799804 18.22099-5.647627 0-11.030218-1.178849-15.909341-3.26844-0.265036-0.096191-0.480954-0.26606-0.695848-0.385786-6.757914-3.052522-17.143449-12.814864-12.888542-8.559956-0.669242-0.645706-4.351098-6.249331-5.551436-8.362458-4.516874-7.642051-6.391571-16.083304-5.456269-24.638143l-0.265036-198.452841 0.265036 0 0-40.529065c0-44.757367 36.276205-81.027431 81.031525-81.027431l43.051515 0 0-0.146333 159.487388-0.192382-0.261966-372.629789c0-72.66395-0.242524-72.618924-43.702338-72.618924l0 0-468.420459 0.242524 0 0c-55.005778 0-54.829769 0-54.829769 81.678254l0 565.268204c0 81.028455 0 81.028455 81.031525 81.028455l79.106686 0.984421c22.37766 0 40.529065 18.124799 40.529065 40.530089 0 22.37766-18.122753 40.524972-40.529065 40.524972l-119.609145 0.215918 0-0.23843-40.505529 0c-44.757367 0-81.027431-36.276205-81.027431-81.032548L128.784108 832.032874l-0.050142 0-0.312108-643.219577 0.36225 0 0-43.023886c0-43.532469 34.394345-78.772065 77.44586-80.674391l571.110259-0.334621c43.408649 0.169869 78.482469 34.496675 80.358189 77.474512l0.357134 480.583476C854.719572 607.813183 870.028233 646.849244 840.07913 665.765059L840.07913 665.765059zM656.453996 672.449295c-90.572832-0.74599-81.173764-9.664104-82.233909 79.060637l0.073678 65.599044 144.513348-144.852062L656.453996 672.449295 656.453996 672.449295zM776.689405 145.811924l-0.192382 0 0.192382 27.115568L776.689405 145.811924 776.689405 145.811924zM776.689405 145.811924" /></svg>