<?xml version="1.0" standalone="no"?><!DOCTYPE svg PUBLIC "-//W3C//DTD SVG 1.1//EN" "http://www.w3.org/Graphics/SVG/1.1/DTD/svg11.dtd"><svg class="icon" width="64px" height="64.00px" viewBox="0 0 1024 1024" version="1.1" xmlns="http://www.w3.org/2000/svg"><path fill="#ffffff" d="M819.226977 659.43304C757.33302 659.43304 704.164682 694.409159 676.681057 745.296498L315.975759 562.422359C324.981478 542.214729 330.219749 519.971606 330.219749 496.421706 330.219749 471.397634 324.105457 447.973836 314.007223 426.795329L690.652752 271.575558C720.409572 309.839265 766.36664 334.891235 818.592 334.891235 908.4115 334.891235 981.226149 262.07882 981.226149 172.257089 981.226149 82.43759 908.410385 9.622944 818.592 9.622944 728.77027 9.622944 655.957857 82.43759 655.957857 172.257089 655.957857 180.697023 657.201027 188.804401 658.441961 196.897274L258.632648 361.660652C232.649975 344.073273 201.323016 333.787559 167.585604 333.787559 77.763872 333.787559 4.951458 406.603321 4.951458 496.421705 4.951458 586.243436 77.763874 659.055849 167.585604 659.055849 203.650889 659.055849 236.656237 646.933282 263.626526 627.0649L657.042563 826.520946C659.457479 914.230181 730.931866 984.701332 819.228092 984.701332 909.047592 984.701332 981.862241 911.888919 981.862241 822.067189 981.861126 732.248804 909.046477 659.43304 819.226977 659.43304L819.226977 659.43304Z" /></svg>