<?xml version="1.0" standalone="no"?><!DOCTYPE svg PUBLIC "-//W3C//DTD SVG 1.1//EN" "http://www.w3.org/Graphics/SVG/1.1/DTD/svg11.dtd"><svg class="icon" width="64px" height="64.00px" viewBox="0 0 1024 1024" version="1.1" xmlns="http://www.w3.org/2000/svg"><path fill="#ffffff" d="M704 864h-512c-89.6 0-160-70.4-160-160v-512c0-89.6 70.4-160 160-160h512c89.6 0 160 70.4 160 160v512c0 89.6-70.4 160-160 160z m-512-768c-51.2 0-96 44.8-96 96v512c0 51.2 44.8 96 96 96h512c51.2 0 96-44.8 96-96v-512c0-51.2-44.8-96-96-96h-512z"  /><path fill="#ffffff" d="M832 992h-512c-19.2 0-32-12.8-32-32s12.8-32 32-32h512c51.2 0 96-44.8 96-96v-512c0-19.2 12.8-32 32-32s32 12.8 32 32v512c0 89.6-70.4 160-160 160z"  /></svg>