<?xml version="1.0" standalone="no"?><!DOCTYPE svg PUBLIC "-//W3C//DTD SVG 1.1//EN" "http://www.w3.org/Graphics/SVG/1.1/DTD/svg11.dtd"><svg class="icon" width="64px" height="64.00px" viewBox="0 0 1024 1024" version="1.1" xmlns="http://www.w3.org/2000/svg"><path fill="#ffffff" d="M768 192 256 192C217.6 192 192 217.6 192 256l0 576c0 38.4 25.6 64 64 64l512 0c38.4 0 64-25.6 64-64L832 256C832 217.6 806.4 192 768 192zM800 819.2c0 25.6-19.2 51.2-51.2 51.2L268.8 870.4c-25.6 0-51.2-19.2-51.2-51.2L217.6 268.8c0-25.6 19.2-51.2 51.2-51.2l480 0c25.6 0 51.2 19.2 51.2 51.2L800 819.2zM704 192 320 192l0 0c0-38.4 25.6-64 64-64l256 0C678.4 128 704 153.6 704 192L704 192zM473.6 665.6c6.4 6.4 19.2 12.8 32 12.8 6.4 0 12.8 0 12.8-6.4 6.4 0 6.4-6.4 6.4-6.4 0 0 0-6.4-6.4-6.4 0 0-12.8-6.4-19.2-12.8C480 640 473.6 627.2 473.6 614.4c0-12.8 6.4-19.2 12.8-25.6C492.8 582.4 505.6 576 518.4 576c12.8 0 19.2 0 25.6 6.4l0 25.6C537.6 601.6 531.2 595.2 518.4 595.2c-6.4 0-12.8 0-12.8 6.4-6.4 0-6.4 6.4-6.4 6.4 0 0 0 6.4 6.4 6.4 0 0 6.4 6.4 19.2 12.8 12.8 6.4 19.2 12.8 25.6 12.8 6.4 6.4 6.4 12.8 6.4 19.2 0 12.8-6.4 19.2-12.8 25.6-6.4 6.4-19.2 6.4-32 6.4-12.8 0-25.6 0-32-6.4L480 665.6zM499.2 550.4l25.6 0 0 32-25.6 0 0-32ZM499.2 691.2l25.6 0 0 32-25.6 0 0-32ZM512 492.8c-76.8 0-140.8 64-140.8 140.8s64 140.8 140.8 140.8 140.8-64 140.8-140.8S588.8 492.8 512 492.8zM512 768c-70.4 0-128-57.6-128-128s57.6-128 128-128 128 57.6 128 128S582.4 768 512 768zM486.4 358.4l44.8 0 0 89.6-44.8 0 0-89.6ZM563.2 358.4 460.8 358.4C454.4 358.4 448 345.6 454.4 339.2l51.2-57.6c6.4-6.4 12.8-6.4 19.2 0l51.2 57.6C576 345.6 569.6 358.4 563.2 358.4z" /></svg>