<?xml version="1.0" standalone="no"?><!DOCTYPE svg PUBLIC "-//W3C//DTD SVG 1.1//EN" "http://www.w3.org/Graphics/SVG/1.1/DTD/svg11.dtd"><svg class="icon" width="64px" height="64.00px" viewBox="0 0 1024 1024" version="1.1" xmlns="http://www.w3.org/2000/svg"><path fill="#ffffff" d="M766.629647 462.848c-23.341176-132.547765-137.938824-230.490353-274.582588-230.490353-154.066824 0-279.416471 125.334588-279.416471 279.401412s125.334588 279.401412 279.416471 279.401412c19.651765 0 39.152941-2.258824 58.23247-6.324706a248.350118 248.350118 0 0 1-11.38447-74.480941c0-130.243765 100.231529-236.905412 227.734588-247.506824z m-274.582588 143.676235c-52.254118 0-94.765176-42.511059-94.765177-94.765176s42.511059-94.765176 94.765177-94.765177 94.750118 42.511059 94.750117 94.765177-42.496 94.765176-94.750117 94.765176zM555.504941 799.096471a294.851765 294.851765 0 0 1-63.457882 7.122823c-162.364235 0-294.475294-132.080941-294.475294-294.460235S329.682824 217.298824 492.047059 217.298824a293.391059 293.391059 0 0 1 289.731765 244.781176c1.897412-0.045176 3.749647-0.286118 5.662117-0.286118 83.410824 0 157.033412 41.231059 202.11953 104.252236a15.013647 15.013647 0 0 0 9.33647-13.899294v-90.398118c0-23.341176-36.050824-32.195765-48.730353-33.460706l-51.591529-4.924235c-10.224941-46.155294-30.102588-91.828706-59.226353-136.011294l28.566588-36.472471c13.688471-16.700235 15.043765-39.137882 3.102118-51.064471L798.885647 128c-11.926588-11.971765-33.957647-10.375529-51.154823 3.674353L709.556706 162.635294a406.889412 406.889412 0 0 0-134.113882-53.504l-5.391059-55.732706c-1.792-17.995294-13.372235-43.369412-33.475765-43.369412h-101.601882c-20.058353 0-31.638588 25.359059-33.460706 43.369412l-5.632 56.229647c-44.574118 10.752-87.672471 29.696-128.436706 56.425412l-43.65553-34.951529c-17.152-14.08-39.137882-15.585882-51.139764-3.523765l-71.845647 71.981176c-11.911529 11.926588-10.255059 33.942588 3.809882 51.139765l37.014588 45.613177a404.269176 404.269176 0 0 0-50.898823 125.891764l-53.232941 6.083765c-19.727059 1.987765-32.466824 15.134118-32.466824 33.475765v101.601882c0 18.341647 12.754824 31.472941 32.346353 33.445647l57.554824 6.249412c10.420706 45.552941 27.226353 87.100235 50.025411 123.783529l-39.439059 47.721412c-14.155294 17.317647-15.932235 39.273412-4.141176 51.034353l71.664941 71.860706c11.866353 11.866353 33.746824 10.285176 50.913883-3.704471l47.073882-38.279529a406.844235 406.844235 0 0 0 124.446118 52.841412l6.068705 57.840941c2.153412 21.534118 16.534588 37.782588 33.445647 37.782588h101.601883c16.896 0 31.277176-16.233412 33.445647-37.722353l5.782588-55.205647 7.981177-1.144471c15.179294-2.153412 30.704941-4.472471 44.453647-8.643764-0.873412-0.768-1.671529-1.596235-2.529883-2.364236a248.877176 248.877176 0 0 1-70.219294-99.764705zM783.616 478.117647c-127.518118 0-230.896941 103.378824-230.896941 230.896941s103.378824 230.896941 230.896941 230.896941c127.533176 0 230.896941-103.378824 230.896941-230.896941S911.149176 478.117647 783.616 478.117647z m4.397176 406.482824c-97.807059 0-177.377882-79.570824-177.377882-177.377883s79.570824-177.377882 177.377882-177.377882c97.792 0 177.362824 79.570824 177.362824 177.377882s-79.555765 177.377882-177.362824 177.377883zM788.013176 544.888471c-89.494588 0-162.319059 72.824471-162.319058 162.319058s72.824471 162.319059 162.319058 162.319059 162.304-72.824471 162.304-162.319059-72.794353-162.319059-162.304-162.319058z m0 245.36847c-45.793882 0-83.049412-37.255529-83.049411-83.049412s37.255529-83.049412 83.049411-83.049411c45.778824 0 83.034353 37.255529 83.034353 83.049411s-37.255529 83.049412-83.034353 83.049412z" /></svg>