<?xml version="1.0" standalone="no"?><!DOCTYPE svg PUBLIC "-//W3C//DTD SVG 1.1//EN" "http://www.w3.org/Graphics/SVG/1.1/DTD/svg11.dtd"><svg class="icon" width="64px" height="64.00px" viewBox="0 0 1024 1024" version="1.1" xmlns="http://www.w3.org/2000/svg"><path fill="#ffffff" d="M665.284923 78.769231l-70.498461 211.416615-4.017231 12.130462V315.076923h-157.538462v-12.760615l-4.017231-12.130462L358.715077 78.769231h306.569846M669.538462 0h-315.076924a78.769231 78.769231 0 0 0-78.76923 78.769231l78.76923 236.307692a78.769231 78.769231 0 0 0 78.769231 78.769231h157.538462a78.769231 78.769231 0 0 0 78.769231-78.769231l78.76923-236.307692a78.769231 78.769231 0 0 0-78.76923-78.769231z"  /><path fill="#ffffff" d="M590.769231 393.846154c0 5.198769 0.551385 10.397538 1.496615 15.438769L667.963077 787.692308a78.690462 78.690462 0 0 0-54.114462 23.079384L512 912.620308l-101.848615-101.848616A78.690462 78.690462 0 0 0 356.036923 787.692308l75.697231-378.407385A78.296615 78.296615 0 0 0 433.230769 393.846154h157.538462m0-78.769231h-157.538462a78.769231 78.769231 0 0 0-78.769231 78.769231l-78.76923 393.846154a78.769231 78.769231 0 0 0 78.76923 78.76923l157.538462 157.538462 157.538462-157.538462a78.769231 78.769231 0 0 0 78.76923-78.76923l-78.76923-393.846154a78.769231 78.769231 0 0 0-78.769231-78.769231z"  /><path fill="#ffffff" d="M738.461538 620.307692h-65.614769a39.384615 39.384615 0 0 1 0-78.76923h45.607385l33.240615-45.292308-141.154461-112.64a39.384615 39.384615 0 1 1 49.07323-61.597539l170.692924 136.192a39.384615 39.384615 0 0 1 7.246769 54.035693l-67.347693 92.002461a39.384615 39.384615 0 0 1-31.744 16.068923z"  /></svg>