<?xml version="1.0" standalone="no"?><!DOCTYPE svg PUBLIC "-//W3C//DTD SVG 1.1//EN" "http://www.w3.org/Graphics/SVG/1.1/DTD/svg11.dtd"><svg class="icon" width="64px" height="64.00px" viewBox="0 0 1024 1024" version="1.1" xmlns="http://www.w3.org/2000/svg"><path fill="#ffffff" d="M781.383822 129.799228c-10.103102-1.65264-20.005636-1.381463-30.162974-1.381463H255.669472c-22.201651 0-44.382836 11.30037-58.053184 29.889751-12.288884 16.743336-19.177781 36.31816-19.177781 57.67149v592.150458c0 22.276353 7.544837 42.431392 20.652365 59.542095 13.43601 17.585517 35.469839 27.918863 56.653301 27.918863h496.17764c10.783601 0 21.098527 0.234337 31.807427-1.777483 16.428158-3.090385 32.496112-14.272052 42.653449-28.114315 12.258185-16.679891 18.975167-36.002982 19.176758-57.269331V216.96138c0-39.898709-25.025976-80.774675-64.175625-87.162152zM237.245867 842.888106c2.440585 1.874697 1.157359 0.947582 0 0zM798.990828 825.739541c1.061169-2.8847 0.551562-1.399883 0 0z m2.812046-12.088317c-0.11768 0.155543-0.817622 4.989641-1.134847 6.331196-0.51063 2.109034-1.147126 4.174066-1.846044 6.210445-0.107447 0.234337-0.201591 0.446162-0.276293 0.624217-0.700965 1.559519-1.50733 3.081175-2.303462 4.553713-0.520863 0.970094-2.452865 3.852748-3.03615 4.815679a70.146617 70.146617 0 0 1-3.108804 3.508917c-0.711198 0.769526-3.088338 2.822278-3.969405 3.608177-1.569752 1.105171-3.183506 2.092661-4.817725 3.032056-0.329505 0.184195-0.668219 0.355087-0.997724 0.539283-0.466628 0.194428-0.953721 0.406253-1.325181 0.549515-2.145873 0.785899-4.394077 1.359974-6.634094 1.852184-0.933255 0.080841-1.846044 0.115634-2.77009 0.155543-0.424672 0.022513-0.848321 0.022513-1.294483 0.022513H255.669472c-0.414439 0-0.838088-0.022513-1.252527-0.022513a42.050722 42.050722 0 0 1-2.812045-0.155543c-0.254803-0.056282-0.561795-0.137123-0.912789-0.217964-2.270716-0.468674-4.466732-1.204431-6.621815-1.99033-0.806365-0.433882-1.611707-0.864694-2.420119-1.316995-1.644453-0.929162-3.203972-2.013867-4.743024-3.137457-0.169869-0.137123-0.319272-0.252757-0.435928-0.3776a58.871829 58.871829 0 0 1-3.42603-3.430123c-0.723477-0.785899-2.674922-3.353374-3.417842-4.276396a72.26486 72.26486 0 0 1-2.472308-4.260024c-0.541329-0.985444-1.930979-4.294816-2.397607-5.321192-0.668219-2.052752-1.232061-4.163833-1.741667-6.272867-0.306992-1.279133-0.541329-2.563382-0.775666-3.882424a70.864978 70.864978 0 0 1-0.274246-6.363941V215.585033c0-1.955538 0.095167-3.882424 0.232291-5.837962 0.074701-0.613984 0.201591-1.319042 0.276292-1.771343 0.319272-1.755993 0.733711-3.492544 1.188059-5.230118 0.286526-1.157359 1.636267-4.88424 1.911536-5.814425a96.695273 96.695273 0 0 1 2.185782-4.294816c0.541329-1.001817 2.612501-4.058432 3.088338-4.912894a76.025511 76.025511 0 0 1 3.894703-4.278443c0.668219-0.709151 1.412163-1.381463 2.165316-2.046612 1.835811-1.381463 3.799536-2.579755 5.763261-3.709485 0.339738-0.195451 0.668219-0.355087 1.018189-0.533143 0.456395-0.217964 0.955768-0.414439 1.304716-0.551562a42.439578 42.439578 0 0 1 4.957918-1.456164c0.603751-0.022513 4.423753-0.572028 5.750981-0.572029h512.617054c0.838088 0 1.644453 0.016373 2.482541 0.056282 0.393973 0.022513 0.775666 0.046049 1.147126 0.080841 0.487094 0.078795 0.995677 0.159636 1.357927 0.234338 2.25025 0.476861 4.436032 1.204431 6.579859 1.99033 1.190105 0.613984 2.335185 1.266853 3.471055 1.937119 0.933255 0.567935 3.577478 2.581802 4.446265 3.171226a60.422138 60.422138 0 0 1 3.131317 3.175319c0.74292 0.769526 2.739391 3.390213 3.460822 4.294816 1.092891 1.737574 2.078335 3.533476 3.034103 5.367241 0.48914 0.945535 0.935302 1.933025 1.369183 2.894933 0.870834 2.466168 1.559519 5.006014 2.185782 7.553023 0.286526 1.283226 0.520863 2.561335 0.753154 3.840468a68.408019 68.408019 0 0 1 0.276292 6.42841V807.258631c0.020466 0.393973 0.020466 0.773619 0.020466 1.169639a93.396133 93.396133 0 0 1-0.233313 5.222954zM313.5753 580.331271h283.461957c11.853979 0 21.757536-10.016121 21.757536-22.007223 0-12.005428-9.902534-22.017456-21.757536-22.017456H313.5753c-11.866259 0-21.756513 10.012028-21.756513 22.017456-0.001023 11.991102 9.890254 22.007223 21.756513 22.007223z m396.827911 70.620408H313.5753c-11.866259 0-21.756513 10.016121-21.756513 22.005176 0 12.007475 9.890254 22.001083 21.756513 22.001084h396.827911c11.876492 0 21.776979-9.993608 21.776979-22.001084 0-11.989055-9.900487-22.005176-21.776979-22.005176zM335.140455 413.812747c10.973936 0 21.872147-4.575202 29.64211-12.426007 7.757684-7.844665 12.278651-18.86465 12.278651-29.964452s-4.520967-22.122857-12.278651-29.970592c-7.769964-7.844665-18.668175-12.403494-29.64211-12.403495-10.985192 0-21.884426 4.559852-29.642111 12.403495-7.759731 7.848759-12.270465 18.869766-12.270465 29.970592s4.510734 22.12081 12.270465 29.964452c7.757684 7.849782 18.655895 12.426007 29.642111 12.426007z m170.072467 0c10.973936 0 21.874193-4.575202 29.64211-12.426007 7.757684-7.844665 12.290931-18.86465 12.290931-29.964452s-4.533246-22.122857-12.290931-29.970592c-7.767917-7.844665-18.668175-12.403494-29.64211-12.403495s-21.884426 4.559852-29.631878 12.403495c-7.769964 7.848759-12.290931 18.869766-12.290931 29.970592s4.520967 22.12081 12.290931 29.964452c7.747451 7.849782 18.657942 12.426007 29.631878 12.426007z m170.072467 0c10.963703 0 21.884426-4.575202 29.64211-12.426007 7.747451-7.844665 12.268418-18.86465 12.268418-29.964452s-4.520967-22.122857-12.268418-29.970592c-7.757684-7.844665-18.678408-12.403494-29.64211-12.403495-10.973936 0-21.872147 4.559852-29.642111 12.403495-7.757684 7.848759-12.278651 18.869766-12.278651 29.970592s4.520967 22.12081 12.278651 29.964452c7.769964 7.849782 18.668175 12.426007 29.642111 12.426007z" /></svg>