<?xml version="1.0" standalone="no"?><!DOCTYPE svg PUBLIC "-//W3C//DTD SVG 1.1//EN" "http://www.w3.org/Graphics/SVG/1.1/DTD/svg11.dtd"><svg class="icon" width="64px" height="64.00px" viewBox="0 0 1024 1024" version="1.1" xmlns="http://www.w3.org/2000/svg"><path fill="#ffffff" d="M607.3 585.3c-4.8 0-9.6 2-13 5.8-6.4 7.2-5.8 18.2 1.4 24.7 56.2 50.1 91.2 145.6 91.2 249.4 0 9.7 7.8 17.5 17.5 17.5 9.7 0 17.5-7.8 17.5-17.5 0-113.4-39.4-218.9-102.9-275.4C615.6 586.8 611.4 585.3 607.3 585.3L607.3 585.3zM421.6 585.3c-4.1 0-8.3 1.5-11.6 4.4-63.5 56.5-102.9 162.1-102.9 275.4 0 9.7 7.8 17.5 17.5 17.5 9.7 0 17.5-7.8 17.5-17.5 0-103.7 34.9-199.2 91.2-249.4 7.2-6.4 7.8-17.5 1.4-24.7C431.2 587.3 426.4 585.3 421.6 585.3L421.6 585.3zM514.5 166.5c116.8 0 211.8 94 211.8 209.6 0 115.6-95 209.6-211.8 209.6s-211.8-94-211.8-209.6C302.7 260.6 397.7 166.5 514.5 166.5M514.5 131.6c-136.3 0-246.7 109.5-246.7 244.5s110.5 244.5 246.7 244.5 246.7-109.5 246.7-244.5S650.7 131.6 514.5 131.6L514.5 131.6zM232.9 323c-0.8 0-1.7 0.1-2.5 0.2-97 13.3-170.1 95.4-170.1 190.9 0 67.1 35 128.3 93.6 163.9 0 0 0.1 0 0.1 0.1 2.3 1.4 4.6 2.7 6.9 4-11 13.1-20.7 28.4-29.2 46 0 0 0 0.1 0 0.1-19.5 40.2-29.7 87.6-29.7 137.2 0 9.7 7.8 17.5 17.5 17.5s17.5-7.8 17.5-17.5c0-44.3 9.1-86.5 26.2-122 10.7-22.1 24.1-40.5 38.8-53.4l21.6-18.9-26.7-10.5c-8.3-3.2-16.3-7.3-24.7-12.3 0 0-0.1 0-0.1-0.1-48.1-29.1-76.8-79.2-76.8-134 0-78.1 60.1-145.3 139.9-156.3 9.6-1.3 16.2-10.1 14.9-19.7C248.9 329.3 241.6 323 232.9 323L232.9 323zM796 323c-8.7 0-16 6.4-17.2 15.1-1.3 9.6 5.4 18.4 14.9 19.7 79.8 11 139.9 78.2 139.9 156.3 0 54.8-28.7 104.8-76.8 134 0 0-0.1 0-0.1 0-8.2 5-16.5 9.1-24.7 12.3l-26.7 10.5 21.6 18.9c14.7 12.8 28.1 31.3 38.8 53.3 0 0 0 0 0 0.1 17.2 35.5 26.3 77.6 26.3 122 0 9.7 7.8 17.5 17.5 17.5s17.5-7.8 17.5-17.5c0-49.6-10.3-97-29.7-137.2 0 0 0 0 0-0.1-8.5-17.5-18.3-32.9-29.2-46 2.3-1.3 4.6-2.6 6.9-4 58.7-35.5 93.7-96.8 93.7-163.9 0-95.5-73.1-177.6-170.1-190.9C797.7 323 796.8 323 796 323L796 323zM514.4 511.8c-55 0-99.7-38-99.7-84.6 0-9.7 7.8-17.5 17.5-17.5 9.7 0 17.5 7.8 17.5 17.5 0 27.4 29.1 49.7 64.8 49.7s64.8-22.3 64.8-49.7c0-9.7 7.8-17.5 17.5-17.5 9.7 0 17.5 7.8 17.5 17.5C614.2 473.9 569.4 511.8 514.4 511.8z" /></svg>