<?xml version="1.0" standalone="no"?><!DOCTYPE svg PUBLIC "-//W3C//DTD SVG 1.1//EN" "http://www.w3.org/Graphics/SVG/1.1/DTD/svg11.dtd"><svg class="icon" width="64px" height="64.00px" viewBox="0 0 1024 1024" version="1.1" xmlns="http://www.w3.org/2000/svg"><path fill="#ffffff" d="M896 534.4v265.6c0 54.4-41.6 96-96 96h-576c-54.4 0-96-41.6-96-96v-256-3.2-6.4l102.4-416c3.2-12.8 16-25.6 32-25.6h499.2c16 0 28.8 9.6 32 25.6l102.4 416z m-73.6-22.4l-86.4-352h-448l-86.4 352h118.4c9.6 0 16 3.2 22.4 9.6l86.4 86.4h163.2l89.6-86.4c6.4-6.4 12.8-9.6 22.4-9.6h118.4z m9.6 64h-115.2l-89.6 86.4c-6.4 6.4-12.8 9.6-22.4 9.6h-188.8c-9.6 0-16-3.2-22.4-9.6l-86.4-86.4h-115.2v224c0 19.2 12.8 32 32 32h576c19.2 0 32-12.8 32-32v-224z" /></svg>