<?xml version="1.0" standalone="no"?><!DOCTYPE svg PUBLIC "-//W3C//DTD SVG 1.1//EN" "http://www.w3.org/Graphics/SVG/1.1/DTD/svg11.dtd"><svg class="icon" width="64px" height="64.00px" viewBox="0 0 1024 1024" version="1.1" xmlns="http://www.w3.org/2000/svg"><path fill="#ffffff" d="M513.532 151.69c-199.84 0-361.841 162.002-361.841 361.841s162.002 361.841 361.841 361.841 361.841-162.002 361.841-361.841-162.002-361.841-361.841-361.841zM513.532 808.962c-163.162 0-295.43-132.267-295.43-295.43s132.267-295.43 295.43-295.43 295.43 132.267 295.43 295.43-132.267 295.43-295.43 295.43z"  /><path fill="#ffffff" d="M497.075 342.916c0 23.534 19.077 42.611 42.611 42.611s42.611-19.077 42.611-42.611-19.077-42.611-42.611-42.611c-23.534 0.005-42.611 19.081-42.611 42.611zM527.425 735.274c-31.436 7.865-74.952 7.161-96.698-1.572-21.75-8.728-29.667-40.479-17.593-70.55l54.232-135.109c12.073-30.074-3.601-61.766-34.825-70.432l-10.364-2.877c-31.225-8.665-30.606-20.017 1.379-25.224l31.040-5.055c31.985-5.21 75.948-2.328 97.697 6.403 21.75 8.728 29.615 40.457 17.479 70.506l-50.564 125.205c-12.136 30.049 3.053 62.219 33.745 71.492s30.090 23.296-1.346 31.161l-24.18 6.052z"  /></svg>