<?xml version="1.0" standalone="no"?><!DOCTYPE svg PUBLIC "-//W3C//DTD SVG 1.1//EN" "http://www.w3.org/Graphics/SVG/1.1/DTD/svg11.dtd"><svg class="icon" width="64px" height="64.00px" viewBox="0 0 1024 1024" version="1.1" xmlns="http://www.w3.org/2000/svg"><path fill="#ffffff" d="M832.563 800.043h-640.976c-19.027 0-35.174-13.126-38.497-31.209l-92.837-480.897c-2.872-15.605 4.826-31.352 19.018-39.226 14.341-7.867 32.155-6.27 44.68 3.936l190.174 160.41 165.192-266.542c14.341-21.574 51.174-21.574 65.517 0l165.089 266.542 190.115-160.555c12.535-10.349 30.502-11.806 44.69-3.938 14.339 7.876 21.882 23.623 19.016 39.226l-92.682 481.192c-3.322 17.935-19.48 31.060-38.493 31.060v0zM192.222 751.999h639.71l76.027-433.853-163.285 139.722c-9.567 8.101-21.99 11.644-34.409 9.963-12.411-1.863-23.326-8.948-30.205-19.407l-167.987-261.392-167.974 261.392c-6.887 10.629-17.795 17.715-30.213 19.407-12.58 1.849-25.001-1.863-34.405-9.963l-163.283-139.722 76.024 433.853zM839.651 893.666h-655.151c-22.065 0-39.964-12.733-39.964-28.436 0-15.698 17.899-28.435 39.964-28.435h655.151c22.065 0 39.964 12.735 39.964 28.435 0 15.701-17.899 28.436-39.964 28.436v0zM839.651 893.666z" /></svg>