<?xml version="1.0" standalone="no"?><!DOCTYPE svg PUBLIC "-//W3C//DTD SVG 1.1//EN" "http://www.w3.org/Graphics/SVG/1.1/DTD/svg11.dtd"><svg class="icon" width="64px" height="64.00px" viewBox="0 0 1024 1024" version="1.1" xmlns="http://www.w3.org/2000/svg"><path fill="#ffffff" d="M789.04832 949.72928 236.14464 949.72928c-70.7072 0-78.38208-26.10176-78.99136-77.84448L157.15328 132.37248c0-42.98752 16.0256-78.45376 78.99136-77.84448 0 0 453.2224 0 327.15776 0l55.20896 0 243.74784 258.69312 5.78048 4.60288 0 9.15968 0 8.66816 0 49.7152 0 486.51776C868.03968 929.9712 846.3104 949.72928 789.04832 949.72928zM631.08096 152.1152l0 142.81728c0 21.49376 4.52096 22.89152 26.33216 22.89152l131.65056 0L631.08096 152.1152zM815.38048 370.4832l-184.29952 0c-43.6224 0-52.6592-35.99872-52.6592-78.98624L578.42176 107.19232 236.13952 107.19232c-21.8112 0-26.33216 4.83328-26.33216 26.32704l0 737.21856c0 21.49376 4.51584 26.33216 26.33216 26.33216l552.91392 0c21.8112 0 26.32704-4.83328 26.32704-26.33216L815.38048 370.4832 815.38048 370.4832zM288.79872 537.95328l447.59552 0 0 21.9392L288.79872 559.89248 288.79872 537.95328zM288.79872 535.04l447.59552 0 0 6.5792L288.79872 541.6192 288.79872 535.04zM288.79872 449.47456l210.6368 0 0 52.6592-210.6368 0L288.79872 449.47456zM288.79872 344.15616l210.6368 0 0 52.6592-210.6368 0L288.79872 344.15616zM517.22752 814.23872c18.00192-7.79776 34.60096-18.60096 49.80224-32.39936 8.59648-8.20224 16.50176-16.59904 23.70048-25.20064 4.39296-5.59616 8.40192-11.10016 12.00128-16.50176l7.79776-15.0016-38.4 0c-6.20032 0.19968-24.89856 0.90112-56.09984 2.0992 0.7936-6.1952 1.19808-10.79808 1.19808-13.7984-0.19968-2.80064-0.59904-7.30112-1.19808-13.50144l12.29824 0.90112 106.50112 0.90112 0-45.9008-53.4016 0c-13.39904 0.19968-27.60192 0.90112-42.5984 2.0992 0.7936-6.79424 1.19808-11.6992 1.19808-14.69952-0.19968-3.00032-0.59904-7.79776-1.19808-14.40256 2.40128 0.19968 4.59776 0.40448 6.59968 0.59904 15.19616 0.79872 44.99968 1.19808 89.40032 1.19808l0-15.60064c0-12.19584-0.59904-25.20064-1.80224-38.99904 6.79424 0.79872 11.6992 1.19808 14.69952 1.19808 3.39968-0.19456 8.40192-0.59904 15.0016-1.19808-0.19968 5.80608-0.59904 11.6992-1.19808 17.69984l-0.90112 36.89984 38.09792 0c19.79904 0 38.09792-0.59904 54.90176-1.80224-0.79872 6.59968-1.19808 11.40224-1.19808 14.40256 0.19456 3.59936 0.59904 8.50432 1.19808 14.69952-4.60288-0.7936-8.50432-1.19808-11.6992-1.19808-4.00384-0.59904-31.00672-0.90112-80.9984-0.90112l0 45.9008 66.89792 0c12.79488 0 29.10208-0.59904 48.90112-1.80224-0.79872 6.40512-1.19808 10.9056-1.19808 13.50144 0.19456 3.00032 0.59904 7.6032 1.19808 13.7984-8.20736-0.59904-15.0016-0.90112-20.39808-0.90112-13.99808-0.59904-39.59808-0.90112-76.8-0.90112 1.19808 2.60096 2.40128 5.20704 3.59936 7.79776 9.00096 19.60448 23.3984 36.59776 43.20256 51.00032 6.79424 4.80256 14.40256 9.00096 22.79936 12.60032 8.80128 4.00384 17.1008 6.90176 24.89856 8.69888l13.50144 2.69824c-8.8064 6.59968-14.10048 11.20256-15.8976 13.7984-3.00032 3.59936-6.59968 10.19904-10.79808 19.79904-2.60096-1.60256-4.90496-3.10272-6.90176-4.50048-22.4-12.40576-41.40032-26.7008-57.00096-42.90048-14.20288-15.40096-24.6016-30.8992-31.20128-46.49984-1.80224-3.39968-3.4048-6.59968-4.80256-9.6l0 71.3984c0.19456 7.39328 0.90112 27.10016 2.0992 59.10016-7.00416-0.79872-12.10368-1.19808-15.29856-1.19808-3.4048 0.19456-8.40192 0.59904-15.0016 1.19808l1.19808-21.89824c0.59904-12.00128 0.90112-50.69824 0.90112-116.10112l-8.09984 14.40256c-9.40544 17.2032-20.39808 32.70144-32.9984 46.49984-8.6016 9.20064-17.69984 18.29888-27.29984 27.29984-2.20672 1.9968-4.1984 3.59936-6.00064 4.80256-6.59968 4.80256-13.0048 9.7024-19.2 14.69952-3.00032 2.40128-6.00064 4.89984-9.00096 7.5008-5.80608-10.99776-15.0016-19.79904-27.60192-26.39872L517.22752 814.23872z" /></svg>