<?xml version="1.0" standalone="no"?><!DOCTYPE svg PUBLIC "-//W3C//DTD SVG 1.1//EN" "http://www.w3.org/Graphics/SVG/1.1/DTD/svg11.dtd"><svg class="icon" width="64px" height="64.00px" viewBox="0 0 1024 1024" version="1.1" xmlns="http://www.w3.org/2000/svg"><path fill="#ffffff" d="M585.336774 709.575868c0-108.457154 76.748988-198.980867 178.896436-220.2421l-201.550389-321.645604c-9.860579-15.783475-28.077475-25.599028-47.440475-25.599028-19.413142 0-37.586037 9.815553-47.489594 25.599028L70.230016 802.051025c-10.525728 16.801664-10.373255 37.581943 0.396019 54.209646 10.124592 15.650445 27.725458 24.981974 47.070039 24.981974l547.224246 0C616.242667 839.975776 585.336774 778.388093 585.336774 709.575868zM466.158441 370.622062c0-3.845585 1.76725-7.741311 5.306866-10.703783 3.579525-2.958378 8.265244-4.462638 12.905938-4.462638l63.23316 0c4.684696 0 9.370415 1.505283 12.911054 4.462638 3.584642 2.962471 5.345752 6.858198 5.345752 10.703783l0 166.458149 0.095167 108.191094c0.045025 3.939729-1.769296 7.829316-5.351891 10.787694-3.584642 2.962471-8.269337 4.462638-12.955056 4.417613l-62.916958-0.261966c-4.646833 0-9.290597-1.505283-12.82612-4.422729-3.540639-2.958378-5.308913-6.808056-5.352915-10.698666l-0.393973-106.773815L466.159464 370.622062zM566.00038 780.077571c0 5.840008-1.813299 11.630898-5.351891 16.050558-3.583618 4.423753-8.269337 6.635117-12.910031 6.635117l-63.323211 0c-4.685719 0-9.370415-2.211365-12.905938-6.635117-3.579525-4.418636-5.350868-10.214642-5.350868-16.050558L466.158441 742.278687c0-5.796006 1.771343-11.631922 5.350868-16.050558 3.535523-4.423753 8.220219-6.635117 12.905938-6.635117l63.323211 0c4.640694 0 9.326413 2.211365 12.910031 6.635117 3.538593 4.417613 5.351891 10.258645 5.351891 16.050558L566.00038 780.077571zM954.266287 675.6635c-2.14178-2.142803-4.942569-3.214205-7.740288-3.214205L929.779593 672.449295c-6.940063 0-14.282285-5.41636-16.346293-12.037151l-8.682753-21.095457c-3.263323-6.099928-1.919722-15.106046 2.957355-20.007683l11.884678-11.864212c1.982144-1.984191 3.215228-4.727675 3.215228-7.758708s-1.216711-5.774517-3.215228-7.763824l-20.169365-20.136619c-1.983167-1.984191-4.718465-3.206018-7.742335-3.206018-3.0208 0-5.77247 1.231037-7.754614 3.206018l-11.883655 11.881608c-4.878101 4.894474-13.914918 6.240121-20.025079 2.960425l-21.079084-8.67559c-6.589069-2.048659-12.026918-9.404184-12.026918-16.338107l0-16.768919c0-2.796696-1.072425-5.604648-3.214205-7.748475-2.14485-2.142803-4.943592-3.214205-7.742335-3.214205l-28.485775 0c-2.814092 0-5.611811 1.071402-7.757684 3.214205-2.140757 2.14485-3.212158 4.951779-3.212158 7.748475l0 16.768919c0 6.932899-5.390777 14.289448-12.012591 16.338107l-21.095457 8.67559c-6.124488 3.279696-15.114233 1.952468-19.992333-2.958378l-11.930727-11.874445c-1.983167-1.984191-4.733814-3.198855-7.756661-3.198855s-5.758144 1.230014-7.741311 3.204995l-20.119223 20.120246c-1.984191 1.984191-3.199878 4.719488-3.216251 7.748475 0 3.02387 1.231037 5.76633 3.216251 7.748475l11.869329 11.888771c4.909823 4.91494 6.252401 13.907755 2.957355 20.009729l-8.685823 21.10876c-2.045589 6.625908-9.387811 12.039197-16.32685 12.039197l-16.763802-0.017396c-2.814092 0-5.613858 1.071402-7.755638 3.214205-2.143826 2.142803-3.216251 4.949732-3.216251 7.755638l0 28.477588c0 2.803859 1.072425 5.612834 3.216251 7.755638 2.14178 2.137687 4.941546 3.207042 7.755638 3.207042l16.763802 0c6.939039 0.017396 14.264888 5.428639 16.313547 12.037151l8.699126 21.092387c3.2623 6.118348 1.935072 15.148002-2.957355 20.025079l-11.901051 11.866259c-1.983167 1.983167-3.216251 4.724605-3.216251 7.763824 0 3.02387 1.233084 5.774517 3.216251 7.758708l20.168342 20.135596c1.983167 1.983167 4.716418 3.207042 7.741311 3.207042 3.022847 0 5.774517-1.223874 7.755638-3.207042l11.901051-11.875468c4.877077-4.88731 13.865799-6.230911 19.958564-2.918469l21.143553 8.674567c6.622838 2.056845 12.012591 9.395998 12.012591 16.340153l0 16.70445c0 2.805906 1.072425 5.612834 3.214205 7.753591 2.143826 2.137687 4.942569 3.209088 7.755638 3.209088l28.469402 0c2.815115 0 5.613858-1.071402 7.758708-3.209088 2.14178-2.140757 3.214205-4.947685 3.214205-7.753591l0-16.70445c0-6.944156 5.436826-14.283308 12.027941-16.340153l21.11183-8.674567c6.109138-3.312442 15.129582-1.969864 20.040429 2.918469l11.819187 11.866259c1.984191 1.992377 4.717442 3.231601 7.758708 3.231601 3.0208 0.007163 5.771447-1.215688 7.754614-3.207042l20.169365-20.149922c1.997494-1.989307 3.215228-4.734838 3.215228-7.766894 0-3.031033-1.233084-5.773494-3.215228-7.755638l-11.884678-11.866259c-4.877077-4.878101-6.220678-13.907755-2.957355-20.025079l8.683776-21.092387c2.062985-6.608511 9.435906-12.019755 16.347317-12.019755l16.744359 0c2.797719 0 5.599532-1.071402 7.740288-3.217275 2.143826-2.142803 3.215228-4.948709 3.215228-7.755638l0-28.484751C957.481516 680.613232 956.410114 677.80528 954.266287 675.6635zM793.752524 760.612241c-34.803667 0-62.997799-28.180829-62.997799-62.977333 0-34.781154 28.195156-62.97938 62.997799-62.97938 34.786271 0 62.983473 28.198226 62.983473 62.97938C856.735997 732.431412 828.538795 760.612241 793.752524 760.612241z" /></svg>