<?xml version="1.0" standalone="no"?><!DOCTYPE svg PUBLIC "-//W3C//DTD SVG 1.1//EN" "http://www.w3.org/Graphics/SVG/1.1/DTD/svg11.dtd"><svg class="icon" width="64px" height="64.00px" viewBox="0 0 1024 1024" version="1.1" xmlns="http://www.w3.org/2000/svg"><path fill="#ffffff" d="M756.009333 728.949333l0.945334 0.945334-47.777334 46.641333-0.754666-0.945333-1.136 0.945333-47.581334-46.641333 1.130667-0.945334-86.58-84.789333 47.681333-46.456 86.484 84.598667 221.506667-217.064 47.772 46.736-221.690667 216.974666z m-66.850666-216.504c-92.152 0-166.836 73.173333-166.836 163.44 0 90.076 74.684 163.153333 166.836 163.153334 83.468 0 152.58-60.052 164.665333-138.608l67.605333-66.470667c2.645333 13.596 4.156 27.573333 4.156 41.924 0 128.033333-105.937333 231.510667-236.426666 231.510667-130.764 0-236.702667-103.476-236.702667-231.510667s105.938667-231.701333 236.702667-231.701333c54.384 0 104.237333 18.221333 144.276 48.437333l-49.853334 48.622667c-26.817333-18.126667-59.296-28.797333-94.422666-28.797334zM262.673333 270.454667H554.706667c18.698667 0 33.616 14.726667 33.616 32.949333s-14.917333 33.048-33.616 33.048H262.673333c-18.598667 0-33.705333-14.824-33.705333-33.048s15.106667-32.949333 33.705333-32.949333z m0 329.894666h89.886667c18.601333 0 33.708 14.917333 33.708 33.045334 0 18.317333-15.106667 33.050667-33.708 33.050666h-89.886667c-18.598667 0-33.705333-14.733333-33.705333-33.050666 0-18.128 15.106667-33.045333 33.705333-33.045334z m0-153.898666h134.829334c18.601333 0 33.708 14.726667 33.708 33.045333 0 18.128-15.106667 32.949333-33.708 32.949333H262.673333c-18.598667 0-33.705333-14.821333-33.705333-32.949333 0-18.318667 15.106667-33.045333 33.705333-33.045333z m415.533334-45.133334v-194.88c0-25.585333-21.148-46.358667-47.204-46.358666H186.289333c-26.152 0-47.301333 20.772-47.301333 46.358666V772.76c0 25.681333 21.149333 46.265333 47.301333 46.265333h261.729334c13.596 32.854667 32.856 62.688 56.461333 88.369334H96.593333c-26.154667 0-47.304-20.769333-47.304-46.26V118.536c0-25.585333 21.149333-46.361333 47.304-46.361333h624.669334c26.062667 0 47.212 20.776 47.212 46.361333v280.138667c-11.901333-1.321333-23.797333-2.266667-36.256-2.266667-18.509333-0.001333-36.257333 1.888-54.012 4.909333z" /></svg>