<?xml version="1.0" standalone="no"?><!DOCTYPE svg PUBLIC "-//W3C//DTD SVG 1.1//EN" "http://www.w3.org/Graphics/SVG/1.1/DTD/svg11.dtd"><svg class="icon" width="64px" height="63.94px" viewBox="0 0 1025 1024" version="1.1" xmlns="http://www.w3.org/2000/svg"><path fill="#ffffff" d="M103.36 463.68c-41.6 10.496-75.904 20.608-102.976 30.144-1.024 27.84 0.256 56.192 3.968 84.736C4.8 580.992 5.12 583.552 5.568 586.112 33.472 592.768 68.672 598.976 111.168 604.8c5.632 24.192 13.184 47.552 22.848 69.824-30.848 29.824-55.616 55.744-74.24 77.632 14.656 27.456 31.552 53.184 50.496 77.248 27.584-8.256 61.248-20.544 100.992-36.8 16.704 17.92 35.072 34.304 54.72 48.96-11.84 41.216-20.288 76.032-25.536 104.256 26.048 16.32 53.696 30.336 82.432 41.792 19.712-20.928 42.688-48.256 68.992-82.24 23.168 7.104 47.36 12.288 71.872 15.104 10.432 41.6 20.48 75.968 30.144 102.976 27.84 1.024 56.128-0.256 84.736-4.032 2.432-0.32 4.928-0.704 7.488-1.088 6.656-27.968 12.864-63.104 18.624-105.664 24.32-5.568 47.616-13.184 69.824-22.848 29.888 30.848 55.808 55.552 77.696 74.24 27.456-14.656 53.184-31.552 77.184-50.496-8.256-27.648-20.352-61.248-36.672-100.928 17.92-16.768 34.24-35.136 48.896-54.72 41.28 11.776 76.16 20.224 104.384 25.472 16.32-25.984 30.272-53.632 41.792-82.368-20.928-19.648-48.32-42.752-82.24-68.992 7.168-23.232 12.288-47.296 15.168-71.872 41.6-10.432 75.904-20.544 102.976-30.144 0.96-27.84-0.32-56.192-4.16-84.736-0.256-2.496-0.768-4.928-1.088-7.424-27.968-6.656-63.168-12.928-105.664-18.688-5.568-24.256-13.248-47.552-22.784-69.76 30.784-29.888 55.552-55.744 74.112-77.632-14.528-27.456-31.488-53.248-50.432-77.248C886.144 202.944 852.48 215.168 812.8 231.36c-16.704-17.92-35.072-34.24-54.72-48.96 11.712-41.28 20.224-76.032 25.472-104.256-26.048-16.32-53.696-30.336-82.368-41.792-19.776 20.864-42.688 48.192-68.992 82.112-23.168-7.04-47.296-12.16-71.808-15.04C549.76 61.76 539.648 27.328 530.048 0.32 502.208-0.64 473.92 0.64 445.376 4.48 442.816 4.736 440.384 5.12 437.888 5.568 431.296 33.472 424.96 68.672 419.2 111.104 395.008 116.736 371.712 124.416 349.44 133.888 319.488 103.04 293.696 78.336 271.808 59.776 244.352 74.432 218.624 91.264 194.56 110.336c8.192 27.648 20.352 61.12 36.672 100.864C213.248 227.968 196.928 246.272 182.272 265.856 141.056 254.08 106.304 245.632 77.952 240.448 61.632 266.56 47.68 294.08 36.16 322.816c20.992 19.712 48.256 42.752 82.112 68.928C111.296 415.04 106.176 439.104 103.36 463.68zM473.472 218.816c161.92-21.248 310.464 92.8 331.712 254.784 21.248 161.984-92.8 310.464-254.72 331.712-161.984 21.248-310.464-92.8-331.776-254.72C197.44 388.48 311.488 240 473.472 218.816zM517.184 510.976m-127.104 0a1.986 1.986 0 1 0 254.208 0 1.986 1.986 0 1 0-254.208 0Z" /></svg>