<?xml version="1.0" standalone="no"?><!DOCTYPE svg PUBLIC "-//W3C//DTD SVG 1.1//EN" "http://www.w3.org/Graphics/SVG/1.1/DTD/svg11.dtd"><svg class="icon" width="64px" height="64.00px" viewBox="0 0 1024 1024" version="1.1" xmlns="http://www.w3.org/2000/svg"><path fill="#ffffff" d="M512 64C265.408 64 64 265.408 64 512s201.408 448 448 448c246.656 0 448-201.408 448-448s-200.384-448-448-448z m0 852.032c-222.336 0-403.968-180.544-403.968-404.032S289.664 108.032 512 108.032c222.4 0 404.032 181.632 404.032 403.968A404.288 404.288 0 0 1 512 916.032z m230.848-285.184H389.952l76.032 80a37.376 37.376 0 0 1 0 50.88 33.152 33.152 0 0 1-48.448 0l-129.28-135.872c-1.344-1.344-1.856-3.072-2.88-4.544a35.52 35.52 0 0 1-11.072-25.664c0-19.52 15.296-35.328 34.24-35.328h434.368c18.88 0 34.24 15.808 34.24 35.328 0 19.392-15.424 35.2-34.304 35.2z m0-164.48H308.48a34.816 34.816 0 0 1-34.176-35.328c0-19.456 15.296-35.264 34.176-35.264h351.552l-74.624-76.8a35.84 35.84 0 0 1 0-49.856 33.472 33.472 0 0 1 48.448 0l129.344 132.992c0.64 0.64 0.832 1.472 1.408 2.24a35.392 35.392 0 0 1 12.416 26.688 34.688 34.688 0 0 1-34.176 35.328z m0 0"  /></svg>