<?xml version="1.0" standalone="no"?><!DOCTYPE svg PUBLIC "-//W3C//DTD SVG 1.1//EN" "http://www.w3.org/Graphics/SVG/1.1/DTD/svg11.dtd"><svg class="icon" width="64px" height="64.00px" viewBox="0 0 1024 1024" version="1.1" xmlns="http://www.w3.org/2000/svg"><path fill="#ffffff" d="M641.910448 502.447761H372.537313c-15.283582 0-28.656716-13.373134-28.656716-28.656716s13.373134-28.656716 28.656716-28.656717h269.373135c15.283582 0 28.656716 13.373134 28.656716 28.656717s-13.373134 28.656716-28.656716 28.656716zM641.910448 597.970149H372.537313c-15.283582 0-28.656716-13.373134-28.656716-28.656716s13.373134-28.656716 28.656716-28.656717h269.373135c15.283582 0 28.656716 13.373134 28.656716 28.656717s-13.373134 28.656716-28.656716 28.656716z"  /><path fill="#ffffff" d="M508.179104 722.149254c-15.283582 0-28.656716-13.373134-28.656716-28.656717V475.701493c0-15.283582 13.373134-28.656716 28.656716-28.656717s28.656716 13.373134 28.656717 28.656717v217.791044c0 15.283582-13.373134 28.656716-28.656717 28.656717z"  /><path fill="#ffffff" d="M510.089552 500.537313c-9.552239 0-17.19403-3.820896-22.925373-11.462686L382.089552 349.61194c-9.552239-13.373134-7.641791-30.567164 5.731344-40.119403s30.567164-7.641791 40.119403 5.731344l105.074626 139.462686c9.552239 13.373134 7.641791 30.567164-5.731343 40.119403-5.731343 3.820896-11.462687 5.731343-17.19403 5.731343z"  /><path fill="#ffffff" d="M502.447761 500.537313c-5.731343 0-11.462687-1.910448-17.19403-5.731343-13.373134-9.552239-15.283582-26.746269-5.731343-40.119403l105.074627-139.462686c9.552239-13.373134 26.746269-15.283582 40.119403-5.731344 13.373134 9.552239 15.283582 26.746269 5.731343 40.119403l-105.074627 139.462687c-5.731343 7.641791-13.373134 11.462687-22.925373 11.462686z"  /><path fill="#ffffff" d="M508.179104 970.507463c-252.179104 0-458.507463-206.328358-458.507462-458.507463s206.328358-458.507463 458.507462-458.507463c112.716418 0 219.701493 40.119403 303.761195 114.626866 19.104478 17.19403 36.298507 36.298507 53.492537 55.402985 13.373134 17.19403 11.462687 40.119403-5.731343 53.492537s-40.119403 11.462687-53.492538-5.731343c-13.373134-17.19403-28.656716-32.477612-43.940298-45.850746-70.686567-61.134328-160.477612-95.522388-254.089553-95.522388-210.149254 0-382.089552 171.940299-382.089552 382.089552s171.940299 382.089552 382.089552 382.089552 382.089552-171.940299 382.089553-382.089552c0-32.477612-3.820896-64.955224-11.462687-95.522388-5.731343-21.014925 7.641791-42.029851 26.746269-45.850746 21.014925-5.731343 42.029851 7.641791 45.850746 26.746268 9.552239 38.208955 15.283582 76.41791 15.283582 116.537314 0 252.179104-206.328358 456.597015-458.507463 456.597015z"  /><path fill="#ffffff" d="M842.507463 273.19403c-13.373134 0-26.746269-9.552239-28.656717-24.835821l-19.104477-118.447761c-3.820896-15.283582 7.641791-30.567164 22.925373-32.477612 15.283582-1.910448 30.567164 7.641791 32.477612 22.925373l19.104477 118.447761c1.910448 15.283582-7.641791 30.567164-22.925373 32.477612 0 1.910448-1.910448 1.910448-3.820895 1.910448z"  /></svg>