<?xml version="1.0" standalone="no"?><!DOCTYPE svg PUBLIC "-//W3C//DTD SVG 1.1//EN" "http://www.w3.org/Graphics/SVG/1.1/DTD/svg11.dtd"><svg class="icon" width="64px" height="64.00px" viewBox="0 0 1024 1024" version="1.1" xmlns="http://www.w3.org/2000/svg"><path fill="#ffffff" d="M916.949333 234.368c0-23.552-19.128889-42.666667-42.666667-42.666667l-768 0c-23.566222 0-42.666667 19.114667-42.666667 42.666667l0 71.111111 853.333333 0L916.949333 234.368zM803.171556 490.368c42.965333 0 82.389333 14.776889 113.777778 39.367111l0-110.478222-853.333333 0 0 327.111111c0 23.580444 19.100444 42.666667 42.666667 42.666667L657.635556 789.034667c-24.590222-31.388444-39.367111-70.812444-39.367111-113.777778C618.282667 573.155556 701.056 490.368 803.171556 490.368zM954.154667 795.875556l-36.48-36.48c17.365333-23.537778 27.719111-52.565333 27.719111-84.110222 0-78.520889-63.701333-142.222222-142.222222-142.222222s-142.222222 63.701333-142.222222 142.222222c0 78.535111 63.701333 142.222222 142.222222 142.222222 31.616 0 60.743111-10.424889 84.366222-27.918222l36.451556 36.451556c8.348444 8.334222 21.845333 8.334222 30.165333 0C962.488889 817.706667 962.488889 804.209778 954.154667 795.875556zM803.171556 774.812444c-54.997333 0-99.555556-44.558222-99.555556-99.555556 0-54.940444 44.558222-99.555556 99.555556-99.555556 54.968889 0 99.555556 44.615111 99.555556 99.555556C902.727111 730.282667 858.140444 774.812444 803.171556 774.812444z" /></svg>